<?xml version="1.0" encoding="UTF-8" standalone="no"?>
<svg
   xmlns:dc="http://purl.org/dc/elements/1.1/"
   xmlns:cc="http://creativecommons.org/ns#"
   xmlns:rdf="http://www.w3.org/1999/02/22-rdf-syntax-ns#"
   xmlns:svg="http://www.w3.org/2000/svg"
   xmlns="http://www.w3.org/2000/svg"
   xmlns:sodipodi="http://sodipodi.sourceforge.net/DTD/sodipodi-0.dtd"
   xmlns:inkscape="http://www.inkscape.org/namespaces/inkscape"
   aria-hidden="true"
   focusable="false"
   data-prefix="far"
   data-icon="share-alt"
   class="svg-inline--fa fa-share-alt fa-w-14"
   role="img"
   viewBox="0 0 512 512"
   version="1.1"
   id="svg3725"
   sodipodi:docname="share-alt-regular.svg"
   width="512"
   height="512"
   inkscape:version="0.92.4 (unknown)">
  <metadata
     id="metadata3731">
    <rdf:RDF>
      <cc:Work
         rdf:about="">
        <dc:format>image/svg+xml</dc:format>
        <dc:type
           rdf:resource="http://purl.org/dc/dcmitype/StillImage" />
        <dc:title></dc:title>
      </cc:Work>
    </rdf:RDF>
  </metadata>
  <defs
     id="defs3729" />
  <sodipodi:namedview
     pagecolor="#ffffff"
     bordercolor="#666666"
     borderopacity="1"
     objecttolerance="10"
     gridtolerance="10"
     guidetolerance="10"
     inkscape:pageopacity="0"
     inkscape:pageshadow="2"
     inkscape:window-width="1920"
     inkscape:window-height="1016"
     id="namedview3727"
     showgrid="false"
     fit-margin-left="32"
     inkscape:zoom="1.6113281"
     inkscape:cx="224"
     inkscape:cy="256"
     inkscape:window-x="0"
     inkscape:window-y="27"
     inkscape:window-maximized="1"
     inkscape:current-layer="svg3725" />
  <path
     d="m 384,320 c -25.6,0 -48.9,10 -66.1,26.4 l -98.3,-61.5 c 5.9,-18.8 5.9,-39.1 0,-57.8 l 98.3,-61.5 c 17.2,16.4 40.5,26.4 66.1,26.4 53,0 96,-43 96,-96 0,-53 -43,-96 -96,-96 -53,0 -96,43 -96,96 0,9.8 1.5,19.6 4.4,28.9 l -98.3,61.5 C 176.9,170 153.6,160 128,160 c -53,0 -96,43 -96,96 0,53 43,96 96,96 25.6,0 48.9,-10 66.1,-26.4 l 98.3,61.5 c -2.9,9.4 -4.4,19.1 -4.4,28.9 0,53 43,96 96,96 53,0 96,-43 96,-96 0,-53 -43,-96 -96,-96 z m 0,-272 c 26.5,0 48,21.5 48,48 0,26.5 -21.5,48 -48,48 -26.5,0 -48,-21.5 -48,-48 0,-26.5 21.5,-48 48,-48 z M 128,304 c -26.5,0 -48,-21.5 -48,-48 0,-26.5 21.5,-48 48,-48 26.5,0 48,21.5 48,48 0,26.5 -21.5,48 -48,48 z m 256,160 c -26.5,0 -48,-21.5 -48,-48 0,-26.5 21.5,-48 48,-48 26.5,0 48,21.5 48,48 0,26.5 -21.5,48 -48,48 z"
     id="path3723"
     inkscape:connector-curvature="0"
     style="fill:currentColor" />
</svg>
